<svg data-v-423bf9ae="" xmlns="http://www.w3.org/2000/svg" viewBox="0 0 335 90" class="iconLeft"><!----><!----><!----><g data-v-423bf9ae="" id="4a27ef2d-79da-428d-8bf1-51dfc385b02d" fill="#ffffff" transform="matrix(4.559270569581267,0,0,4.559270569581267,108.5866328783298,3.1914904364436723)"><path d="M4.05 13.23L4.05 13.23Q2.79 13.23 1.95 12.90L1.95 12.90L1.95 12.90Q1.11 12.57 0.71 12.10L0.71 12.10L0.71 12.10Q0.31 11.62 0.31 11.20L0.31 11.20L0.31 11.20Q0.31 11.06 0.41 10.96L0.41 10.96L0.41 10.96Q0.50 10.85 0.64 10.85L0.64 10.85L3.08 10.85L3.14 10.85L3.14 10.85Q3.28 10.86 3.40 10.94L3.40 10.94L3.40 10.94Q3.53 11.02 3.57 11.05L3.57 11.05L3.57 11.05Q3.74 11.16 3.86 11.21L3.86 11.21L3.86 11.21Q3.99 11.27 4.14 11.27L4.14 11.27L4.14 11.27Q4.27 11.27 4.37 11.21L4.37 11.21L4.37 11.21Q4.47 11.16 4.47 11.06L4.47 11.06L4.47 11.06Q4.47 10.92 4.38 10.82L4.38 10.82L4.38 10.82Q4.30 10.72 3.98 10.63L3.98 10.63L3.98 10.63Q3.67 10.53 3.01 10.40L3.01 10.40L3.01 10.40Q1.89 10.19 1.17 9.64L1.17 9.64L1.17 9.64Q0.45 9.09 0.45 8.06L0.45 8.06L0.45 8.06Q0.45 7.45 0.86 6.89L0.86 6.89L0.86 6.89Q1.27 6.34 2.08 6.01L2.08 6.01L2.08 6.01Q2.88 5.67 3.99 5.67L3.99 5.67L3.99 5.67Q5.08 5.67 5.92 6.00L5.92 6.00L5.92 6.00Q6.76 6.33 7.21 6.80L7.21 6.80L7.21 6.80Q7.66 7.28 7.66 7.70L7.66 7.70L7.66 7.70Q7.66 7.84 7.56 7.94L7.56 7.94L7.56 7.94Q7.46 8.05 7.35 8.05L7.35 8.05L5.14 8.05L5.00 8.05L5.00 8.05Q4.87 8.05 4.74 7.99L4.74 7.99L4.74 7.99Q4.61 7.92 4.49 7.84L4.49 7.84L4.49 7.84Q4.20 7.63 3.98 7.63L3.98 7.63L3.98 7.63Q3.86 7.63 3.78 7.69L3.78 7.69L3.78 7.69Q3.70 7.76 3.70 7.85L3.70 7.85L3.70 7.85Q3.70 7.99 3.79 8.09L3.79 8.09L3.79 8.09Q3.88 8.18 4.21 8.27L4.21 8.27L4.21 8.27Q4.54 8.37 5.24 8.47L5.24 8.47L5.24 8.47Q6.64 8.68 7.30 9.34L7.30 9.34L7.30 9.34Q7.97 10.01 7.97 10.82L7.97 10.82L7.97 10.82Q7.97 11.96 6.94 12.59L6.94 12.59L6.94 12.59Q5.92 13.23 4.05 13.23L4.05 13.23ZM9.27 13.09L9.27 13.09Q9.11 13.09 9.00 12.98L9.00 12.98L9.00 12.98Q8.89 12.87 8.89 12.71L8.89 12.71L8.89 6.19L8.89 6.19Q8.89 6.03 9.00 5.92L9.00 5.92L9.00 5.92Q9.11 5.81 9.27 5.81L9.27 5.81L11.72 5.81L11.72 5.81Q11.87 5.81 11.98 5.92L11.98 5.92L11.98 5.92Q12.10 6.03 12.10 6.19L12.10 6.19L12.10 6.65L12.10 6.65Q12.46 6.22 13.08 5.94L13.08 5.94L13.08 5.94Q13.71 5.67 14.42 5.67L14.42 5.67L14.42 5.67Q15.16 5.67 15.78 6.01L15.78 6.01L15.78 6.01Q16.39 6.36 16.77 7.07L16.77 7.07L16.77 7.07Q17.14 7.78 17.14 8.85L17.14 8.85L17.14 12.71L17.14 12.71Q17.14 12.87 17.02 12.98L17.02 12.98L17.02 12.98Q16.91 13.09 16.76 13.09L16.76 13.09L14.08 13.09L14.08 13.09Q13.93 13.09 13.82 12.98L13.82 12.98L13.82 12.98Q13.71 12.87 13.71 12.71L13.71 12.71L13.71 8.95L13.71 8.95Q13.71 8.57 13.52 8.37L13.52 8.37L13.52 8.37Q13.34 8.18 13.01 8.18L13.01 8.18L13.01 8.18Q12.67 8.18 12.49 8.37L12.49 8.37L12.49 8.37Q12.31 8.57 12.31 8.95L12.31 8.95L12.31 12.71L12.31 12.71Q12.31 12.87 12.19 12.98L12.19 12.98L12.19 12.98Q12.08 13.09 11.93 13.09L11.93 13.09L9.27 13.09ZM18.77 5.04L18.77 5.04Q18.62 5.04 18.51 4.93L18.51 4.93L18.51 4.93Q18.40 4.82 18.40 4.66L18.40 4.66L18.40 2.97L18.40 2.97Q18.40 2.81 18.51 2.70L18.51 2.70L18.51 2.70Q18.62 2.59 18.77 2.59L18.77 2.59L21.14 2.59L21.14 2.59Q21.29 2.59 21.41 2.70L21.41 2.70L21.41 2.70Q21.52 2.81 21.52 2.97L21.52 2.97L21.52 4.66L21.52 4.66Q21.52 4.82 21.41 4.93L21.41 4.93L21.41 4.93Q21.29 5.04 21.14 5.04L21.14 5.04L18.77 5.04ZM18.70 13.09L18.70 13.09Q18.55 13.09 18.44 12.98L18.44 12.98L18.44 12.98Q18.33 12.87 18.33 12.71L18.33 12.71L18.33 6.19L18.33 6.19Q18.33 6.03 18.44 5.92L18.44 5.92L18.44 5.92Q18.55 5.81 18.70 5.81L18.70 5.81L21.21 5.81L21.21 5.81Q21.36 5.81 21.48 5.92L21.48 5.92L21.48 5.92Q21.59 6.03 21.59 6.19L21.59 6.19L21.59 12.71L21.59 12.71Q21.59 12.87 21.48 12.98L21.48 12.98L21.48 12.98Q21.36 13.09 21.21 13.09L21.21 13.09L18.70 13.09ZM23.23 15.75L23.23 15.75Q23.07 15.75 22.96 15.64L22.96 15.64L22.96 15.64Q22.85 15.53 22.85 15.37L22.85 15.37L22.85 6.19L22.85 6.19Q22.85 6.03 22.96 5.92L22.96 5.92L22.96 5.92Q23.07 5.81 23.23 5.81L23.23 5.81L25.61 5.81L25.61 5.81Q25.76 5.81 25.87 5.92L25.87 5.92L25.87 5.92Q25.98 6.03 25.98 6.19L25.98 6.19L25.98 6.61L25.98 6.61Q26.32 6.17 26.84 5.92L26.84 5.92L26.84 5.92Q27.37 5.67 28.06 5.67L28.06 5.67L28.06 5.67Q29.36 5.67 30.16 6.45L30.16 6.45L30.16 6.45Q30.95 7.24 31.02 8.90L31.02 8.90L31.02 8.90Q31.04 9.11 31.04 9.45L31.04 9.45L31.04 9.45Q31.04 9.80 31.02 10.01L31.02 10.01L31.02 10.01Q30.97 11.59 30.15 12.41L30.15 12.41L30.15 12.41Q29.33 13.23 28.06 13.23L28.06 13.23L28.06 13.23Q26.78 13.23 26.19 12.39L26.19 12.39L26.19 15.37L26.19 15.37Q26.19 15.53 26.08 15.64L26.08 15.64L26.08 15.64Q25.97 15.75 25.82 15.75L25.82 15.75L23.23 15.75ZM26.89 10.72L26.89 10.72Q27.26 10.72 27.40 10.53L27.40 10.53L27.40 10.53Q27.55 10.33 27.59 9.91L27.59 9.91L27.59 9.91Q27.62 9.63 27.62 9.45L27.62 9.45L27.62 9.45Q27.62 9.27 27.59 8.99L27.59 8.99L27.59 8.99Q27.55 8.57 27.40 8.37L27.40 8.37L27.40 8.37Q27.26 8.18 26.89 8.18L26.89 8.18L26.89 8.18Q26.53 8.18 26.38 8.38L26.38 8.38L26.38 8.38Q26.22 8.58 26.19 8.99L26.19 8.99L26.19 8.99Q26.18 9.20 26.18 9.51L26.18 9.51L26.18 9.51Q26.18 9.81 26.19 10.02L26.19 10.02L26.19 10.02Q26.22 10.37 26.38 10.55L26.38 10.55L26.38 10.55Q26.54 10.72 26.89 10.72L26.89 10.72ZM32.48 15.75L32.48 15.75Q32.33 15.75 32.21 15.64L32.21 15.64L32.21 15.64Q32.10 15.53 32.10 15.37L32.10 15.37L32.10 6.19L32.10 6.19Q32.10 6.03 32.21 5.92L32.21 5.92L32.21 5.92Q32.33 5.81 32.48 5.81L32.48 5.81L34.86 5.81L34.86 5.81Q35.01 5.81 35.13 5.92L35.13 5.92L35.13 5.92Q35.24 6.03 35.24 6.19L35.24 6.19L35.24 6.61L35.24 6.61Q35.57 6.17 36.10 5.92L36.10 5.92L36.10 5.92Q36.62 5.67 37.31 5.67L37.31 5.67L37.31 5.67Q38.61 5.67 39.41 6.45L39.41 6.45L39.41 6.45Q40.21 7.24 40.28 8.90L40.28 8.90L40.28 8.90Q40.29 9.11 40.29 9.45L40.29 9.45L40.29 9.45Q40.29 9.80 40.28 10.01L40.28 10.01L40.28 10.01Q40.22 11.59 39.40 12.41L39.40 12.41L39.40 12.41Q38.58 13.23 37.31 13.23L37.31 13.23L37.31 13.23Q36.04 13.23 35.45 12.39L35.45 12.39L35.45 15.37L35.45 15.37Q35.45 15.53 35.34 15.64L35.34 15.64L35.34 15.64Q35.22 15.75 35.07 15.75L35.07 15.75L32.48 15.75ZM36.15 10.72L36.15 10.72Q36.51 10.72 36.66 10.53L36.66 10.53L36.66 10.53Q36.81 10.33 36.85 9.91L36.85 9.91L36.85 9.91Q36.88 9.63 36.88 9.45L36.88 9.45L36.88 9.45Q36.88 9.27 36.85 8.99L36.85 8.99L36.85 8.99Q36.81 8.57 36.66 8.37L36.66 8.37L36.66 8.37Q36.51 8.18 36.15 8.18L36.15 8.18L36.15 8.18Q35.78 8.18 35.63 8.38L35.63 8.38L35.63 8.38Q35.48 8.58 35.45 8.99L35.45 8.99L35.45 8.99Q35.43 9.20 35.43 9.51L35.43 9.51L35.43 9.51Q35.43 9.81 35.45 10.02L35.45 10.02L35.45 10.02Q35.48 10.37 35.64 10.55L35.64 10.55L35.64 10.55Q35.80 10.72 36.15 10.72L36.15 10.72ZM42.80 15.75L42.80 15.75Q42.67 15.75 42.58 15.67L42.58 15.67L42.58 15.67Q42.49 15.58 42.49 15.46L42.49 15.46L42.49 15.46Q42.49 15.44 42.48 15.40L42.48 15.40L42.48 15.40Q42.48 15.36 42.50 15.32L42.50 15.32L43.62 12.63L40.92 6.24L40.92 6.24Q40.91 6.20 40.91 6.15L40.91 6.15L40.91 6.15Q40.94 6.01 41.03 5.91L41.03 5.91L41.03 5.91Q41.13 5.81 41.26 5.81L41.26 5.81L43.62 5.81L43.62 5.81Q43.95 5.81 44.07 6.15L44.07 6.15L45.22 9.34L46.41 6.15L46.41 6.15Q46.55 5.81 46.89 5.81L46.89 5.81L49.22 5.81L49.22 5.81Q49.35 5.81 49.45 5.90L49.45 5.90L49.45 5.90Q49.55 5.99 49.55 6.10L49.55 6.10L49.55 6.10Q49.55 6.19 49.53 6.24L49.53 6.24L45.58 15.41L45.58 15.41Q45.44 15.75 45.09 15.75L45.09 15.75L42.80 15.75Z"></path></g><!----><g data-v-423bf9ae="" id="6855e842-f7f0-4cff-9f5c-63d6329bc2f7" transform="matrix(2.8125,0,0,2.8125,0,0)" stroke="none" fill="#00A3DD"><path d="M0 16.024L15.976 32 32 15.976 16.024 0 0 16.024zm15.989 7.323l-7.336-7.336 14.694-.022-7.358 7.358z"></path></g><!----></svg>